<svg width="38" height="24" viewBox="0 0 38 24" fill="none" xmlns="http://www.w3.org/2000/svg">
<path d="M5.5 5.23242H1.91992V9H0.794922V0.46875H6.08008V1.39453H1.91992V4.3125H5.5V5.23242ZM6.8418 5.77148C6.8418 5.15039 6.96289 4.5918 7.20508 4.0957C7.45117 3.59961 7.79102 3.2168 8.22461 2.94727C8.66211 2.67773 9.16016 2.54297 9.71875 2.54297C10.582 2.54297 11.2793 2.8418 11.8105 3.43945C12.3457 4.03711 12.6133 4.83203 12.6133 5.82422V5.90039C12.6133 6.51758 12.4941 7.07227 12.2559 7.56445C12.0215 8.05273 11.6836 8.43359 11.2422 8.70703C10.8047 8.98047 10.3008 9.11719 9.73047 9.11719C8.87109 9.11719 8.17383 8.81836 7.63867 8.2207C7.10742 7.62305 6.8418 6.83203 6.8418 5.84766V5.77148ZM7.93164 5.90039C7.93164 6.60352 8.09375 7.16797 8.41797 7.59375C8.74609 8.01953 9.18359 8.23242 9.73047 8.23242C10.2812 8.23242 10.7188 8.01758 11.043 7.58789C11.3672 7.1543 11.5293 6.54883 11.5293 5.77148C11.5293 5.07617 11.3633 4.51367 11.0312 4.08398C10.7031 3.65039 10.2656 3.43359 9.71875 3.43359C9.18359 3.43359 8.75195 3.64648 8.42383 4.07227C8.0957 4.49805 7.93164 5.10742 7.93164 5.90039ZM17.0371 3.63281C16.873 3.60547 16.6953 3.5918 16.5039 3.5918C15.793 3.5918 15.3105 3.89453 15.0566 4.5V9H13.9727V2.66016H15.0273L15.0449 3.39258C15.4004 2.82617 15.9043 2.54297 16.5566 2.54297C16.7676 2.54297 16.9277 2.57031 17.0371 2.625V3.63281ZM19.0586 2.66016L19.0879 3.36328C19.5527 2.81641 20.1797 2.54297 20.9688 2.54297C21.8555 2.54297 22.459 2.88281 22.7793 3.5625C22.9902 3.25781 23.2637 3.01172 23.5996 2.82422C23.9395 2.63672 24.3398 2.54297 24.8008 2.54297C26.1914 2.54297 26.8984 3.2793 26.9219 4.75195V9H25.8379V4.81641C25.8379 4.36328 25.7344 4.02539 25.5273 3.80273C25.3203 3.57617 24.9727 3.46289 24.4844 3.46289C24.082 3.46289 23.748 3.58398 23.4824 3.82617C23.2168 4.06445 23.0625 4.38672 23.0195 4.79297V9H21.9297V4.8457C21.9297 3.92383 21.4785 3.46289 20.5762 3.46289C19.8652 3.46289 19.3789 3.76562 19.1172 4.37109V9H18.0332V2.66016H19.0586ZM32.4766 9C32.4141 8.875 32.3633 8.65234 32.3242 8.33203C31.8203 8.85547 31.2188 9.11719 30.5195 9.11719C29.8945 9.11719 29.3809 8.94141 28.9785 8.58984C28.5801 8.23438 28.3809 7.78516 28.3809 7.24219C28.3809 6.58203 28.6309 6.07031 29.1309 5.70703C29.6348 5.33984 30.3418 5.15625 31.252 5.15625H32.3066V4.6582C32.3066 4.2793 32.1934 3.97852 31.9668 3.75586C31.7402 3.5293 31.4062 3.41602 30.9648 3.41602C30.5781 3.41602 30.2539 3.51367 29.9922 3.70898C29.7305 3.9043 29.5996 4.14062 29.5996 4.41797H28.5098C28.5098 4.10156 28.6211 3.79688 28.8438 3.50391C29.0703 3.20703 29.375 2.97266 29.7578 2.80078C30.1445 2.62891 30.5684 2.54297 31.0293 2.54297C31.7598 2.54297 32.332 2.72656 32.7461 3.09375C33.1602 3.45703 33.375 3.95898 33.3906 4.59961V7.51758C33.3906 8.09961 33.4648 8.5625 33.6133 8.90625V9H32.4766ZM30.6777 8.17383C31.0176 8.17383 31.3398 8.08594 31.6445 7.91016C31.9492 7.73438 32.1699 7.50586 32.3066 7.22461V5.92383H31.457C30.1289 5.92383 29.4648 6.3125 29.4648 7.08984C29.4648 7.42969 29.5781 7.69531 29.8047 7.88672C30.0312 8.07812 30.3223 8.17383 30.6777 8.17383ZM36.5605 1.125V2.66016H37.7441V3.49805H36.5605V7.42969C36.5605 7.68359 36.6133 7.875 36.7188 8.00391C36.8242 8.12891 37.0039 8.19141 37.2578 8.19141C37.3828 8.19141 37.5547 8.16797 37.7734 8.12109V9C37.4883 9.07812 37.2109 9.11719 36.9414 9.11719C36.457 9.11719 36.0918 8.9707 35.8457 8.67773C35.5996 8.38477 35.4766 7.96875 35.4766 7.42969V3.49805H34.3223V2.66016H35.4766V1.125H36.5605ZM8.55273 14.4688L11.3418 21.4297L14.1309 14.4688H15.5898V23H14.4648V19.6777L14.5703 16.0918L11.7695 23H10.9082L8.11328 16.1094L8.22461 19.6777V23H7.09961V14.4688H8.55273ZM20.0898 19.1973C19.125 18.9199 18.4219 18.5801 17.9805 18.1777C17.543 17.7715 17.3242 17.2715 17.3242 16.6777C17.3242 16.0059 17.5918 15.4512 18.127 15.0137C18.666 14.5723 19.3652 14.3516 20.2246 14.3516C20.8105 14.3516 21.332 14.4648 21.7891 14.6914C22.25 14.918 22.6055 15.2305 22.8555 15.6289C23.1094 16.0273 23.2363 16.4629 23.2363 16.9355H22.1055C22.1055 16.4199 21.9414 16.0156 21.6133 15.7227C21.2852 15.4258 20.8223 15.2773 20.2246 15.2773C19.6699 15.2773 19.2363 15.4004 18.9238 15.6465C18.6152 15.8887 18.4609 16.2266 18.4609 16.6602C18.4609 17.0078 18.6074 17.3027 18.9004 17.5449C19.1973 17.7832 19.6992 18.002 20.4062 18.2012C21.1172 18.4004 21.6719 18.6211 22.0703 18.8633C22.4727 19.1016 22.7695 19.3809 22.9609 19.7012C23.1562 20.0215 23.2539 20.3984 23.2539 20.832C23.2539 21.5234 22.9844 22.0781 22.4453 22.4961C21.9062 22.9102 21.1855 23.1172 20.2832 23.1172C19.6973 23.1172 19.1504 23.0059 18.6426 22.7832C18.1348 22.5566 17.7422 22.248 17.4648 21.8574C17.1914 21.4668 17.0547 21.0234 17.0547 20.5273H18.1855C18.1855 21.043 18.375 21.4512 18.7539 21.752C19.1367 22.0488 19.6465 22.1973 20.2832 22.1973C20.877 22.1973 21.332 22.0762 21.6484 21.834C21.9648 21.5918 22.123 21.2617 22.123 20.8438C22.123 20.4258 21.9766 20.1035 21.6836 19.877C21.3906 19.6465 20.8594 19.4199 20.0898 19.1973ZM31 21.8809C30.7109 22.2949 30.3066 22.6055 29.7871 22.8125C29.2715 23.0156 28.6699 23.1172 27.9824 23.1172C27.2871 23.1172 26.6699 22.9551 26.1309 22.6309C25.5918 22.3027 25.1738 21.8379 24.877 21.2363C24.584 20.6348 24.4336 19.9375 24.4258 19.1445V18.4004C24.4258 17.1152 24.7246 16.1191 25.3223 15.4121C25.9238 14.7051 26.7676 14.3516 27.8535 14.3516C28.7441 14.3516 29.4609 14.5801 30.0039 15.0371C30.5469 15.4902 30.8789 16.1348 31 16.9707H29.875C29.6641 15.8418 28.9922 15.2773 27.8594 15.2773C27.1055 15.2773 26.5332 15.543 26.1426 16.0742C25.7559 16.6016 25.5605 17.3672 25.5566 18.3711V19.0684C25.5566 20.0254 25.7754 20.7871 26.2129 21.3535C26.6504 21.916 27.2422 22.1973 27.9883 22.1973C28.4102 22.1973 28.7793 22.1504 29.0957 22.0566C29.4121 21.9629 29.6738 21.8047 29.8809 21.582V19.666H27.9062V18.752H31V21.8809Z" fill="black"/>
</svg>
